<svg xmlns:xlink="http://www.w3.org/1999/xlink" xmlns="http://www.w3.org/2000/svg" class="css-ze2te4 css-qd6ojx" viewBox="0 0 66.45569620253164 88.70541633909221" width="110"  height="110" ><g transform="translate(-16.114396818306385, -4.96598497011329) scale(0.9862552385726366)" class="css-iighhk" fill="#C0FF00"><g xmlns="http://www.w3.org/2000/svg" display="none" opacity="0.3" fill="#C0FF00"><path display="inline" d="M208,42.8c17.2-17.1,19.8-31.5,14-38.4c0,0,43.9,18,18.1,59.9c-4.4,7.1-15.5,15.5-9.7,32.8   C230.3,97.1,175.1,81.6,208,42.8z" fill="#C0FF00"></path><path display="inline" d="M234.6,96.2c-0.9-3.5-5.2-11.2,7.7-26.4c6.9-8.1,11.6-25.9,9.3-30.2c0,0,21.9,28.9-3.4,46.3   C233.1,96.3,234.6,96.2,234.6,96.2z" fill="#C0FF00"></path></g><path xmlns="http://www.w3.org/2000/svg" d="M82.8,50.2C75.9,17.4,57.9,7.5,51.7,5.1c-0.7-0.3-1.4,0.5-1,1.2c5.4,11-1.5,22.3-12.5,27.7c-1.1,0.5-2.4,0.1-2.9-0.9  c-1-1.9-1.5-3.9-1.3-6.2c0.1-1.3-1.4-2.1-2.4-1.1c-4.9,4.9-14,14.1-15.2,34C15.1,80.4,35,91.4,35,91.4c9.4,4.9,19.6,4.3,26.5,1  C73.9,86.4,87.4,72,82.8,50.2z M66.4,72.5c-0.6,6.7-6.7,11.8-11.4,13.8c-4.3,1.8-9.2,1.3-12.9-1.4C36.6,81,31.4,72,35.2,61.8  C40.3,47.9,49.6,43,54.3,40.9c0.9-0.4,1.5,0.4,1.4,1.4C53.4,58.1,67.4,61.5,66.4,72.5z" fill="#C0FF00"></path></g></svg>